<svg width="70" height="40" viewBox="0 0 70 40" fill="none" xmlns="http://www.w3.org/2000/svg"><path fill-rule="evenodd" clip-rule="evenodd" d="M27.428 14.274c6.032.423 10.044-1.45 13.521-4.774-2.597 4.6-8.147 6.246-13.52 4.774zm26.807 16.292a1.852 1.852 0 01-.692-.141v-.217c.22.09.454.138.692.14.336 0 .51-.172.51-.389 0-.294-.262-.363-.54-.436-.314-.084-.651-.172-.651-.604 0-.293.205-.57.692-.57.207 0 .413.036.607.108v.226a1.773 1.773 0 00-.596-.118c-.313 0-.477.15-.477.358 0 .257.244.32.513.391.327.086.69.182.69.649 0 .357-.303.607-.748.607v-.004zm-19.5-.044h-.302l-.251-.25a.866.866 0 00.122-.182l.432.432zm-.598-.598l.167.166a1.04 1.04 0 00.078-.677h-.21a1.08 1.08 0 01-.035.51zm-.105.2a.709.709 0 00.105-.2l-.506-.507c-.238-.249-.31-.357-.31-.51 0-.227.19-.345.407-.345.148-.001.295.024.433.076v-.208a1.154 1.154 0 00-.433-.076c-.475 0-.656.272-.656.554a.746.746 0 00.133.38.76.76 0 00-.414.67c0 .345.254.608.701.608a.888.888 0 00.69-.293l-.15-.15zm-.682-.677a.577.577 0 01.1-.035l-.14-.168a.768.768 0 00-.105.044.746.746 0 00.091.106l.053.053zm0 0a.57.57 0 00-.331.516c0 .268.21.401.504.401a.62.62 0 00.508-.24l-.681-.677zm-9.511-1.058h1.274v.226h-1.037v.683h.987v.228h-.986v.367c0 .336.108.433.488.433a5.32 5.32 0 00.552-.032v.217a3.71 3.71 0 01-.586.043c-.498 0-.692-.152-.692-.661v-1.504zm15.848 0h1.266v.226h-1.028v.683h.986v.228h-.986v.367c0 .336.108.433.488.433a5.32 5.32 0 00.552-.032v.217c-.194.03-.389.044-.584.043-.5 0-.694-.152-.694-.661v-1.504zM27.37 30.326c-.379 0-.487-.042-.487-.335V28.39h-.24v1.635c0 .433.196.53.694.53.178.001.356-.013.53-.043v-.217c-.165.02-.33.03-.497.032zm14.907.103c.22.09.454.138.692.14v.004c.445 0 .747-.249.747-.606 0-.467-.363-.563-.69-.649-.268-.07-.512-.134-.512-.391 0-.208.162-.358.478-.358.203.005.405.045.595.118v-.226a1.734 1.734 0 00-.607-.108c-.486 0-.694.277-.694.57 0 .432.337.52.653.603.278.073.54.142.54.437 0 .217-.174.39-.51.39a1.862 1.862 0 01-.692-.141v.217zm-5.245-1.016h.522c.258 0 .465-.12.465-.4 0-.282-.19-.381-.445-.381h-.541v.781zm.554-1.017h-.791v2.134h.238v-.888h.465l.618.888h.282l-.639-.932a.57.57 0 00.496-.636.62.62 0 00-.67-.566zm8.336.19c-.498 0-.76.424-.76.879 0 .454.267.888.76.888.492 0 .76-.422.76-.888s-.268-.879-.76-.879zm-1.018.879c0 .585.346 1.116 1.018 1.116.67 0 1.017-.53 1.017-1.116 0-.586-.346-1.105-1.017-1.105-.672 0-1.018.52-1.018 1.105zm6.792-.835v1.902h-.24V28.63h-.76v-.241h1.776v.226l-.776.015zm-2.762.791h-.521v-.781h.541c.255 0 .445.098.445.38 0 .281-.205.401-.465.401zm-.76-1.017h.792a.62.62 0 01.671.606.57.57 0 01-.498.595l.639.932h-.282l-.616-.903h-.466v.888h-.237l-.002-2.118zM29.078 30.44c.22.091.455.139.692.14v-.007c.445 0 .747-.249.747-.606 0-.46-.354-.558-.679-.647-.272-.075-.522-.144-.522-.416 0-.217.184-.335.519-.335.19.005.376.041.553.109v-.217a1.712 1.712 0 00-.585-.108c-.466 0-.715.233-.715.57 0 .44.339.53.655.615.277.073.537.143.537.436 0 .217-.173.39-.51.39a1.87 1.87 0 01-.692-.14v.216zm-7.313-1.818v1.902h-.243v-1.902h-.782v-.233h1.79v.226l-.765.008zm-3.717.835c0-.454.262-.878.76-.878.493 0 .761.412.761.878s-.27.888-.76.888c-.491 0-.761-.433-.761-.888zm.76 1.116c-.672 0-1.018-.53-1.018-1.116 0-.585.346-1.105 1.019-1.105.673 0 1.017.52 1.017 1.105 0 .586-.346 1.116-1.017 1.116zm-2.525-1.03v.987l.232-.008v-2.133h-.237v.92h-1.213v-.92h-.238v2.14h.238v-.986h1.218zm-5.585-7.995c.995 1.381 2.106 2.922 3.505 2.922h.495v-6.43H13.46v4.886c-.57-.443-1.164-1.246-1.777-2.074-1.015-1.37-2.082-2.813-3.18-2.813H8v6.43h1.236v-4.688c.472.395.952 1.06 1.461 1.767zm9.965 3.05c-2.092 0-3.385-1.404-3.385-3.343 0-1.968 1.297-3.345 3.385-3.345 2.087 0 3.382 1.377 3.382 3.345 0 1.939-1.285 3.342-3.382 3.342zm-2.067-3.338c0-1.287.71-2.177 2.066-2.177v-.006c1.366 0 2.077.898 2.077 2.183 0 1.286-.72 2.156-2.077 2.156-1.355 0-2.066-.869-2.066-2.156zm10.651 3.26h-.593l-3.116-6.48h1.426l1.987 4.44 1.989-4.44h1.445l-3.138 6.48zm4.63-3.265c0 1.939 1.291 3.342 3.383 3.342 2.097 0 3.383-1.403 3.383-3.343 0-1.967-1.295-3.344-3.383-3.344s-3.383 1.377-3.383 3.345zm3.383-2.172c-1.356 0-2.067.89-2.067 2.177s.711 2.156 2.067 2.156c1.355 0 2.078-.87 2.078-2.156 0-1.285-.713-2.177-2.078-2.177zm8.34 5.387v-5.313h2.314V18.04h-5.878v1.118h2.316v5.313H45.6zm7.084.127c-1.78 0-2.69-.612-2.69-2.314V18.04h4.679v1.168h-3.426v1.405h3.175v1.167h-3.175v.535c0 .869.473 1.097 1.492 1.097.65.01 1.3-.04 1.94-.149v1.141c-.654.136-1.321.2-1.99.19l-.005.004zm4.664-2.373c0 1.69.723 2.373 2.493 2.373l-.004.002a9.981 9.981 0 002.06-.19v-1.14c-.653.093-1.311.14-1.97.138-1.016 0-1.331-.287-1.331-1.168v-4.198h-1.248v4.183z" fill="#20255F"/></svg>